<svg id="Layer_1" data-name="Layer 1" xmlns="http://www.w3.org/2000/svg" xmlns:xlink="http://www.w3.org/1999/xlink" viewBox="0 0 150 80"><defs><style>.cls-1{fill:none;}.cls-2{clip-path:url(#clip-path);}.cls-3{fill:#231f20;}.cls-4{fill:#fff;}</style><clipPath id="clip-path"><rect class="cls-1" x="-4" y="2.38" width="163.34" height="105.69"/></clipPath></defs><title>Artboard 2</title><g class="cls-2"><path class="cls-3" d="M145.13,11.79v2.38l-2.8-2.38h-1.4v9h1.4V13.33l2.8,2.38v5h1.4v-9Zm-16.07.47a5.54,5.54,0,0,0-1.2.75,4.69,4.69,0,0,0-.9.94,3.83,3.83,0,0,0,0,4.63,5.22,5.22,0,0,0,2.1,1.69,7.09,7.09,0,0,0,5.8,0A5.48,5.48,0,0,0,137,18.58a3.78,3.78,0,0,0,.77-2.31A3.83,3.83,0,0,0,137,14a5.55,5.55,0,0,0-2.11-1.68,6.71,6.71,0,0,0-2.9-.62,6.89,6.89,0,0,0-2.9.61m4.6.77a4.72,4.72,0,0,1,1.41.75,3.5,3.5,0,0,1,.93,1.13,3,3,0,0,1,.34,1.36,2.86,2.86,0,0,1-.33,1.34,3.57,3.57,0,0,1-1,1.14,4.36,4.36,0,0,1-1.41.76,5.27,5.27,0,0,1-1.68.26,5,5,0,0,1-2.19-.47A4,4,0,0,1,128.18,18a2.83,2.83,0,0,1-.6-1.75,2.93,2.93,0,0,1,.33-1.35,3.51,3.51,0,0,1,1-1.13,4.56,4.56,0,0,1,1.41-.76,5.23,5.23,0,0,1,1.68-.27,5.36,5.36,0,0,1,1.7.27M122.23,19.7V11.79h-1.4v9H125V19.7Zm-4.31-1.19V17.46h-.71V14.4a5,5,0,0,0-.1-1.13,2,2,0,0,0-.42-.74,2.61,2.61,0,0,0-1-.66,3.67,3.67,0,0,0-1.33-.22,3.6,3.6,0,0,0-1,.14,2.74,2.74,0,0,0-.86.41,2.25,2.25,0,0,0-.61.62,1.33,1.33,0,0,0-.19.4,1.7,1.7,0,0,0-.08.51q0,.3,0,.75v3h-.7v1.05h.7v2.24H113V18.51h2.8v2.24h1.4V18.51ZM113,13.94a1.13,1.13,0,0,1,.4-.91,1.58,1.58,0,0,1,1.07-.35,1.35,1.35,0,0,1,1,.34,1.22,1.22,0,0,1,.36.92v3.52H113Zm-6.13,3.9a1.64,1.64,0,0,1-.68,1.32,2.55,2.55,0,0,1-1.64.54v1.12a4.3,4.3,0,0,0,1.87-.41,3.57,3.57,0,0,0,1.36-1.08,2.46,2.46,0,0,0,.49-1.49,2.94,2.94,0,0,0-1.58-2.43,2.17,2.17,0,0,1-.6-.56,1.06,1.06,0,0,1-.2-.61,1.21,1.21,0,0,1,.52-1,1.87,1.87,0,0,1,1.23-.41V11.72a3.62,3.62,0,0,0-1.58.34,2.88,2.88,0,0,0-1.15.92,2.12,2.12,0,0,0-.42,1.26,2.5,2.5,0,0,0,1.31,2,2,2,0,0,1,1.07,1.56m-6.34,0a1.61,1.61,0,0,1-.68,1.32,2.53,2.53,0,0,1-1.64.54v1.12a4.3,4.3,0,0,0,1.87-.41,3.5,3.5,0,0,0,1.36-1.08,2.47,2.47,0,0,0,.5-1.49,3,3,0,0,0-1.58-2.43,2.09,2.09,0,0,1-.61-.56,1,1,0,0,1-.19-.61,1.22,1.22,0,0,1,.51-1,1.87,1.87,0,0,1,1.23-.41V11.72a3.65,3.65,0,0,0-1.58.34,3,3,0,0,0-1.15.92,2.12,2.12,0,0,0-.42,1.26,2.5,2.5,0,0,0,1.31,2,2,2,0,0,1,1.07,1.56m-7.75-4.1a3.47,3.47,0,0,1,1,1.14,2.88,2.88,0,0,1,.36,1.39,2.77,2.77,0,0,1-.37,1.4,3.67,3.67,0,0,1-1,1.13,4.71,4.71,0,0,1-1.5.71V13a4.47,4.47,0,0,1,1.51.71m-1.51,6.94a6.26,6.26,0,0,0,2.21-.91A4.84,4.84,0,0,0,95,18.21a3.68,3.68,0,0,0,.55-1.94,3.75,3.75,0,0,0-.56-2,4.8,4.8,0,0,0-1.52-1.56,6.42,6.42,0,0,0-2.21-.89,7.22,7.22,0,0,0-1.4-.13v9.1a6.57,6.57,0,0,0,1.4-.14m-6.34.07h1.4v-9h-1.4ZM78.6,19.7V18.51h3.5V17.46H78.6V12.84h2.81V11.79H77.2v5.67h-.7v1.05h.7v2.24h4.21V19.7Zm-4.37-1.19V17.46h-.7V11.79H72.12v5.67H69.39V11.79H68v5.67h-.7v1.05H68v2.24h1.4V18.51h2.73v2.24h1.41V18.51ZM63,11.79v2.38l-2.8-2.38H58.79v9h1.39V13.33L63,15.71v5h1.41v-9Zm-16.06.47a5.87,5.87,0,0,0-1.21.75,4.63,4.63,0,0,0-.89.94,3.83,3.83,0,0,0,0,4.63,5.22,5.22,0,0,0,2.1,1.69,7.09,7.09,0,0,0,5.8,0,5.55,5.55,0,0,0,2.11-1.69,3.84,3.84,0,0,0,.77-2.31A3.89,3.89,0,0,0,54.83,14a5.63,5.63,0,0,0-2.11-1.68,6.73,6.73,0,0,0-2.91-.62,6.87,6.87,0,0,0-2.89.61m4.6.77a4.79,4.79,0,0,1,1.4.75,3.67,3.67,0,0,1,.94,1.13,2.94,2.94,0,0,1,.33,1.36,2.85,2.85,0,0,1-.32,1.34,3.7,3.7,0,0,1-1,1.14,4.58,4.58,0,0,1-1.41.76,5.29,5.29,0,0,1-1.69.26,4.93,4.93,0,0,1-2.18-.47A4,4,0,0,1,46,18a2.83,2.83,0,0,1-.6-1.75,2.93,2.93,0,0,1,.33-1.35,3.61,3.61,0,0,1,.95-1.13A4.61,4.61,0,0,1,48.14,13a5.17,5.17,0,0,1,1.67-.27,5.37,5.37,0,0,1,1.71.27m-19-.77a5.38,5.38,0,0,0-1.21.75,5,5,0,0,0-.9.94,3.83,3.83,0,0,0,0,4.63,5.32,5.32,0,0,0,2.11,1.69,7.07,7.07,0,0,0,5.79,0,5.51,5.51,0,0,0,2.12-1.69,3.84,3.84,0,0,0,.77-2.31A3.89,3.89,0,0,0,40.44,14a5.58,5.58,0,0,0-2.12-1.68,6.68,6.68,0,0,0-2.9-.62,6.84,6.84,0,0,0-2.89.61m4.59.77a4.72,4.72,0,0,1,1.41.75,3.5,3.5,0,0,1,.93,1.13,2.89,2.89,0,0,1,0,2.7,3.53,3.53,0,0,1-.95,1.14,4.52,4.52,0,0,1-1.42.76,5.18,5.18,0,0,1-1.68.26,5,5,0,0,1-2.19-.47A4,4,0,0,1,31.64,18a2.88,2.88,0,0,1-.59-1.75,2.93,2.93,0,0,1,.33-1.35,3.48,3.48,0,0,1,.95-1.13A4.5,4.5,0,0,1,33.75,13a5.17,5.17,0,0,1,1.67-.27,5.31,5.31,0,0,1,1.7.27m-10,5.48V17.46h-.7V11.79H25v5.67H22.26V11.79H20.85v5.67h-.69v1.05h.69v2.24h1.41V18.51H25v2.24h1.4V18.51Zm-10.91.93a4.83,4.83,0,0,1-1.4-.75,3.64,3.64,0,0,1-.93-1.12,2.75,2.75,0,0,1,0-2.61,3.26,3.26,0,0,1,.92-1.11,4.31,4.31,0,0,1,1.39-.75,5.17,5.17,0,0,1,1.65-.26V11.72a6.6,6.6,0,0,0-2.85.61A5.27,5.27,0,0,0,12.88,14a3.78,3.78,0,0,0,0,4.57A5.21,5.21,0,0,0,15,20.21a6.75,6.75,0,0,0,2.85.61V19.7a5.34,5.34,0,0,1-1.63-.26M7.43,16.11a1.63,1.63,0,0,1,.38,1.14,2.09,2.09,0,0,1-.41,1.23,2.94,2.94,0,0,1-1.12.89,3.58,3.58,0,0,1-1.54.33v1.12A5.14,5.14,0,0,0,7,20.33,4.19,4.19,0,0,0,8.61,19a2.89,2.89,0,0,0,.59-1.79,3,3,0,0,0-.11-.86,1.93,1.93,0,0,0-.29-.61,4.83,4.83,0,0,0-1.43-1.42,3.78,3.78,0,0,1-.73-.57,1.71,1.71,0,0,1-.38-.55,1.62,1.62,0,0,1-.11-.62,1.55,1.55,0,0,1,.19-.78,1.89,1.89,0,0,1,.56-.65,2.59,2.59,0,0,1,.82-.45,3,3,0,0,1,1-.14V9.48a4.68,4.68,0,0,0-2,.42,3.63,3.63,0,0,0-1.44,1.15,2.61,2.61,0,0,0-.53,1.57,3.36,3.36,0,0,0,1.59,2.54,7.93,7.93,0,0,1,1.1.95"/><path class="cls-3" d="M11.82,34S4.13,34,4.13,41.7V58.8s0,7.69,7.69,7.69h127.6s7.69,0,7.69-7.69V41.7s0-7.69-7.69-7.69Z"/><path class="cls-4" d="M124,55.21v-1.6h-1.27v-8a5.45,5.45,0,0,0-.19-1.7,2.61,2.61,0,0,0-.76-1.12,5.87,5.87,0,0,0-4.17-1.36,8.1,8.1,0,0,0-1.86.21,6,6,0,0,0-1.55.63,3.77,3.77,0,0,0-1.1.94,2,2,0,0,0-.36.64,2.28,2.28,0,0,0-.15.76,8.81,8.81,0,0,0,0,1.12v7.91h-1.27v1.6h1.27V58.6h2.55V55.21h5.1V58.6h2.54V55.21Zm-8.91-10.32a1.61,1.61,0,0,1,.73-1.38,3.23,3.23,0,0,1,1.92-.53,2.91,2.91,0,0,1,1.8.51,1.67,1.67,0,0,1,.65,1.38v8.74h-5.1Zm-15.19,12,6.84-15.29H97.16v1.7h6.22L96.52,58.6h10.2V56.9ZM86.28,57V46.6h6.37V45H86.28v-1.8h5.1v-1.6H83.72V45H82.45V46.6h1.27v12h7.66V57ZM73.37,57V41.61H70.79v17h7.66V57Zm-12.8,0V41.61H58v17h7.66V57ZM46.35,57V46.6h6.37V45H46.35v-1.8h5.1v-1.6H43.79V45H42.52V46.6h1.27v12h7.66V57ZM31.74,43.73A1.54,1.54,0,0,1,32.53,45a1.51,1.51,0,0,1-.79,1.28,3.36,3.36,0,0,1-1.92.53V43.21a3.36,3.36,0,0,1,1.92.52m-4.48,15a14.84,14.84,0,0,0,2.56-.22,13.29,13.29,0,0,0,4-1.38,8.4,8.4,0,0,0,2.78-2.41,5,5,0,0,0,1-3,5.08,5.08,0,0,0-.88-2.84,7.9,7.9,0,0,0-2.42-2.27,2.55,2.55,0,0,0,.6-1.59,2.63,2.63,0,0,0-.68-1.72,4.57,4.57,0,0,0-1.94-1.23,8.75,8.75,0,0,0-3-.45H27.26Zm7.15-9a3.83,3.83,0,0,1,.65,2.07,4.14,4.14,0,0,1-1.45,3.08A7.84,7.84,0,0,1,31.9,56a10.4,10.4,0,0,1-2.08.75V48.41a9.08,9.08,0,0,0,2.67-.57,6.5,6.5,0,0,1,1.92,1.83"/></g></svg>